<svg width="2359" height="769" viewBox="0 0 2359 769" fill="none" xmlns="http://www.w3.org/2000/svg">
<path fill-rule="evenodd" clip-rule="evenodd" d="M105.163 146.172C176.746 130.456 247.125 177.583 262.359 251.432C263.034 254.705 263.593 258.003 264.033 261.319L283.508 407.863C285.496 422.819 298.859 433.281 313.356 431.231C321.679 430.053 328.967 424.874 333 417.272L351.215 382.93C363.994 358.838 387.256 342.587 413.685 339.289C439.355 336.087 464.488 348.575 478.062 371.279L491.189 393.235C495.861 401.049 505.789 403.476 513.363 398.656C518.53 395.368 521.468 389.363 520.961 383.121L505.833 196.633C500.829 134.947 545.245 80.7554 605.038 75.593C608.052 75.3328 611.075 75.2025 614.099 75.2025C673.157 75.2025 721.033 124.594 721.033 185.521C721.033 189.173 720.857 192.823 720.506 196.457L679.215 624.04C675.693 660.52 647.416 689.198 612 692.208C574.936 695.36 539.635 675.349 522.34 641.383L498.062 593.703C484.193 566.467 451.548 555.986 425.148 570.293C414.157 576.249 405.492 585.93 400.611 597.706L359.374 697.188C338.881 746.627 283.42 769.565 235.499 748.424C213.394 738.672 195.731 720.585 186.114 697.854L22.7175 311.65C-2.99659 250.872 23.9166 180.096 82.8297 153.568C90.0136 150.333 97.4959 147.856 105.163 146.172Z" fill="#FFEE54" stroke="black" stroke-width="24.1216"/>
<path fill-rule="evenodd" clip-rule="evenodd" d="M2247.3 567.281C2288.7 567.281 2322.27 601.917 2322.27 644.642C2322.27 687.368 2288.7 722.003 2247.3 722.003C2205.9 722.003 2172.34 687.368 2172.34 644.642C2172.34 601.917 2205.9 567.281 2247.3 567.281ZM2241.8 13C2299.39 13 2346.07 61.1591 2346.07 120.566C2346.07 125.028 2345.8 129.486 2345.26 133.913L2308.45 437.628C2304.01 474.218 2275.33 502.591 2239.7 505.619C2205.46 508.531 2175.02 483.221 2170.51 448.083L2154.92 326.737C2154.5 323.459 2154.12 320.174 2153.8 316.883L2135.7 134.223C2129.71 73.7687 2172.36 19.7506 2230.96 13.5705C2234.56 13.1904 2238.18 13 2241.8 13Z" fill="#FFEE54" stroke="black" stroke-width="24.1216"/>
<path fill-rule="evenodd" clip-rule="evenodd" d="M1967.56 651.04C1895.97 666.756 1825.59 619.629 1810.36 545.78C1809.69 542.507 1809.13 539.209 1808.69 535.893L1790.67 400.347C1788.66 385.183 1775.11 374.575 1760.41 376.654C1751.37 377.932 1743.58 383.854 1739.72 392.379L1719.19 437.708C1707.91 462.613 1685.36 480.098 1659.03 484.355C1632.69 488.614 1606.02 479.146 1587.79 459.07L1581.53 452.177C1574.94 444.912 1563.88 444.539 1556.84 451.343C1552.86 455.189 1550.85 460.733 1551.4 466.33L1564.73 600.786C1570.72 661.241 1528.07 715.259 1469.47 721.439C1465.86 721.819 1462.24 722.009 1458.62 722.009C1401.04 722.009 1354.35 673.85 1354.35 614.443C1354.35 609.981 1354.62 605.524 1355.16 601.096L1391.97 297.381C1396.41 260.792 1425.1 232.418 1460.72 229.39C1500.07 226.044 1539.24 237.857 1570.64 262.547L1574.66 265.702C1597.38 283.564 1629.84 279.041 1647.15 255.599C1649.73 252.1 1651.89 248.285 1653.57 244.24L1713.35 100.023C1733.84 50.5853 1789.3 27.6465 1837.22 48.7881C1859.33 58.54 1876.99 76.6273 1886.61 99.3579L2050 485.562C2075.72 546.34 2048.8 617.116 1989.89 643.644C1982.71 646.879 1975.22 649.356 1967.56 651.04Z" fill="#FFEE54" stroke="black" stroke-width="24.1216"/>
<path fill-rule="evenodd" clip-rule="evenodd" d="M1065.51 114.67C1088.37 124.204 1107.13 141.919 1118.35 164.566L1288.56 508.05C1316.04 563.508 1294.74 631.447 1240.98 659.798C1232.44 664.302 1223.36 667.627 1213.98 669.687C1140.72 685.77 1068.7 637.544 1053.11 561.97C1052.64 559.671 1052.22 557.361 1051.86 555.04L1045.34 513.192C1042.89 497.437 1028.52 486.717 1013.25 489.248C1001.15 491.253 991.718 501.138 989.968 513.649L975.072 620.163C965.979 685.186 907.513 730.292 844.485 720.911C843.603 720.78 842.724 720.638 841.845 720.486C790.238 711.54 755.431 661.129 764.102 607.888C765.243 600.885 767.119 594.03 769.7 587.447L932.086 173.064C953.301 118.928 1013.04 92.7845 1065.51 114.67ZM1036.94 255.64C1022.79 251.99 1008.45 260.866 1004.91 275.464L991.721 329.907C990.928 333.18 990.527 336.542 990.527 339.917C990.527 362.713 1008.44 381.192 1030.54 381.192C1033.81 381.192 1037.07 380.779 1040.24 379.96C1061.68 374.431 1074.71 352.022 1069.35 329.907L1056.16 275.464C1053.79 265.702 1046.4 258.08 1036.94 255.64Z" fill="#FFEE54" stroke="black" stroke-width="24.1216"/>
</svg>
