<svg width="313" height="305" viewBox="0 0 313 305" fill="none" xmlns="http://www.w3.org/2000/svg">
<g clip-path="url(#clip0_31317_15904)">
<path fill-rule="evenodd" clip-rule="evenodd" d="M265.448 236.013C283.257 236.013 297.693 250.479 297.693 268.347C297.693 286.215 283.257 300.681 265.448 300.681C247.639 300.681 233.202 286.215 233.202 268.347C233.202 250.479 247.639 236.013 265.448 236.013ZM263.081 4.43741C287.872 4.43741 307.958 24.5242 307.958 49.3147C307.958 74.1052 307.84 53.0422 307.603 54.8763L291.747 181.905C289.854 197.17 277.488 209.003 262.164 210.275C245.243 211.666 228.38 206.755 214.89 196.431L213.145 195.099C203.383 187.644 189.42 189.508 181.994 199.271C180.87 200.75 179.953 202.347 179.213 204.033L153.476 264.323C144.69 284.943 120.817 294.528 100.197 285.712C90.6717 281.659 83.0689 274.086 78.9273 264.59L8.60864 103.156C-2.45538 77.7735 9.17072 48.2201 34.5529 37.1857C37.6295 35.8545 40.8245 34.8191 44.1082 34.1091C74.8744 27.5417 105.167 47.1847 111.705 77.951C112.001 79.3414 112.238 80.7022 112.445 82.0926L120.225 138.833C121.083 145.163 126.911 149.571 133.242 148.713C137.146 148.181 140.489 145.696 142.146 142.146L150.991 123.183C155.843 112.8 165.546 105.493 176.847 103.718C188.177 101.943 199.655 105.877 207.495 114.279L210.187 117.178C213.027 120.195 217.79 120.373 220.807 117.533C222.523 115.935 223.381 113.628 223.144 111.291L217.405 54.9946C214.831 29.79 233.202 7.24779 258.407 4.67407C259.945 4.52616 261.513 4.43741 263.051 4.43741H263.081Z" fill="#FFEE54"/>
<path d="M265.448 304.822C245.361 304.822 229.031 288.463 229.031 268.347C229.031 248.23 245.361 231.871 265.448 231.871C285.534 231.871 301.864 248.23 301.864 268.347C301.864 288.463 285.534 304.822 265.448 304.822ZM265.448 240.184C249.946 240.184 237.344 252.816 237.344 268.347C237.344 283.878 249.946 296.51 265.448 296.51C280.949 296.51 293.551 283.878 293.551 268.347C293.551 252.816 280.949 240.184 265.448 240.184ZM116.172 293.137C110.226 293.137 104.25 291.924 98.5998 289.528C88.0683 285.031 79.7259 276.748 75.1406 266.246L4.82195 104.812C-7.12956 77.3593 5.47277 45.321 32.8961 33.3695C36.239 31.92 39.7002 30.7958 43.2502 30.0562C59.225 26.6542 75.5547 29.6717 89.2516 38.5465C102.949 47.4214 112.385 61.1183 115.788 77.0931C116.113 78.5722 116.35 80.0514 116.557 81.5601L124.337 138.3C124.899 142.353 128.627 145.193 132.679 144.631C135.194 144.276 137.324 142.708 138.389 140.43L147.234 121.467C152.677 109.812 163.505 101.647 176.225 99.6649C188.946 97.6828 201.756 102.091 210.542 111.468L213.234 114.368C214.506 115.728 216.636 115.788 217.997 114.516C218.766 113.806 219.15 112.77 219.032 111.705L213.293 55.4088C210.482 27.9559 230.54 3.34286 257.993 0.532482C259.679 0.354984 261.395 0.266235 263.081 0.266235C290.12 0.266235 312.1 22.2464 312.1 49.2851C312.1 76.3239 311.981 53.3676 311.715 55.3496L295.859 182.379C294.823 190.692 290.918 198.472 284.854 204.3C278.789 210.098 270.861 213.677 262.489 214.387C260.478 214.565 258.466 214.624 256.484 214.624C240.568 214.624 225.096 209.418 212.346 199.685L210.601 198.354C206.755 195.425 202.022 194.153 197.229 194.804C192.437 195.454 188.207 197.91 185.278 201.756C184.361 202.939 183.621 204.241 183.03 205.631L157.292 265.921C152.589 276.926 143.921 285.416 132.827 289.883C127.443 292.043 121.793 293.137 116.143 293.137H116.172ZM56.03 36.9786C52.3913 36.9786 48.6934 37.3632 44.9956 38.1324C41.9781 38.7832 39.0494 39.7299 36.2094 40.9428C12.9868 51.0897 2.3074 78.2468 12.4248 101.469L82.773 262.903C86.5004 271.453 93.2749 278.198 101.884 281.866C110.847 285.682 120.728 285.801 129.78 282.162C138.803 278.523 145.903 271.601 149.719 262.667L175.456 202.377C176.314 200.365 177.438 198.472 178.74 196.726C183.03 191.135 189.212 187.526 196.194 186.58C203.175 185.633 210.098 187.467 215.719 191.757L217.464 193.088C230.185 202.791 245.952 207.406 261.868 206.104C268.347 205.572 274.47 202.791 279.144 198.324C283.819 193.857 286.836 187.822 287.664 181.373L303.521 54.3438C303.728 52.6872 303.846 50.9714 303.846 49.3147C303.846 26.8613 285.594 8.60862 263.14 8.60862C240.687 8.60862 260.3 8.66779 258.91 8.8157C236.013 11.1528 219.298 31.6833 221.635 54.5805L227.374 110.877C227.729 114.486 226.369 118.125 223.736 120.58C219.032 124.988 211.636 124.722 207.228 120.018L204.536 117.119C197.643 109.723 187.556 106.262 177.586 107.83C167.617 109.398 159.097 115.788 154.837 124.958L145.992 143.921C143.714 148.773 139.188 152.115 133.892 152.855C133.182 152.944 132.472 153.003 131.762 153.003C124.041 153.003 117.296 147.293 116.202 139.424L108.421 82.6843C108.244 81.3826 108.007 80.1106 107.741 78.8385C102.446 54.048 80.4655 37.0082 56.0892 37.0082L56.03 36.9786Z" fill="#111111"/>
</g>
<defs>
<clipPath id="clip0_31317_15904">
<rect width="312.396" height="305" fill="white"/>
</clipPath>
</defs>
</svg>
